<?xml version="1.0" encoding="UTF-8"?>
<svg xmlns="http://www.w3.org/2000/svg" xmlns:xlink="http://www.w3.org/1999/xlink" width="50px" height="36px" viewBox="0 0 50 36" version="1.1">
<g id="surface1">
<path style=" stroke:none;fill-rule:nonzero;fill:rgb(0%,0%,0%);fill-opacity:1;" d="M 46.003906 1.511719 C 45.292969 7.386719 40.902344 13.71875 33.980469 18.894531 C 32.476562 20.011719 30.816406 21.445312 30.261719 22.0625 C 27.988281 24.609375 26.402344 27.65625 25.851562 30.585938 C 25.554688 32.078125 25.277344 34.644531 25.414062 34.644531 C 25.433594 34.644531 25.832031 34.089844 26.246094 33.390625 C 27.234375 31.820312 28.875 29.867188 29.210938 29.867188 C 29.550781 29.867188 29.527344 30.066406 29.152344 31.402344 C 28.976562 31.996094 28.894531 32.535156 28.957031 32.613281 C 29.035156 32.675781 29.867188 32.535156 30.816406 32.296875 C 31.765625 32.039062 33.761719 31.621094 35.265625 31.339844 C 39.675781 30.542969 41.140625 29.808594 42.503906 27.675781 C 43.632812 25.945312 43.988281 24.351562 43.867188 21.84375 L 43.75 19.8125 L 44.519531 19.136719 C 44.9375 18.777344 45.410156 18.519531 45.53125 18.578125 C 45.945312 18.738281 46.835938 21.304688 47.074219 23.058594 C 47.46875 25.984375 46.835938 28.710938 45.195312 31.179688 C 44.71875 31.878906 44.382812 32.457031 44.441406 32.457031 C 44.5 32.457031 44.957031 32.136719 45.429688 31.738281 C 46.578125 30.78125 47.824219 28.910156 48.4375 27.199219 C 49.425781 24.390625 49.1875 19.832031 47.84375 16.226562 C 47.488281 15.292969 47.46875 14.992188 47.644531 14.574219 C 48.597656 12.503906 48.914062 8.441406 48.359375 5.734375 C 48.082031 4.378906 47.074219 1.929688 46.398438 0.976562 C 46.125 0.578125 46.105469 0.597656 46.003906 1.511719 Z M 47.210938 5.59375 C 47.527344 7.128906 47.507812 10.613281 47.171875 12.246094 C 46.597656 14.972656 44.816406 17.859375 42.78125 19.375 C 42.265625 19.753906 40.585938 20.789062 39.0625 21.664062 C 34.136719 24.472656 31.726562 26.144531 28.738281 28.832031 C 27.097656 30.285156 26.820312 30.207031 27.472656 28.453125 C 28.660156 25.269531 31.308594 21.980469 34.375 19.871094 C 37.539062 17.703125 41.199219 14.019531 43.296875 10.851562 C 44.898438 8.441406 45.429688 7.425781 46.082031 5.613281 C 46.339844 4.9375 46.636719 4.402344 46.757812 4.441406 C 46.875 4.480469 47.074219 4.996094 47.210938 5.59375 Z M 40.664062 22.597656 C 40.863281 23.375 40.40625 25.425781 39.855469 26.402344 C 39.28125 27.378906 38.410156 28.113281 37.402344 28.453125 C 36.097656 28.890625 31.683594 28.53125 31.507812 27.957031 C 31.46875 27.835938 32.042969 27.320312 32.792969 26.800781 C 34 25.964844 34.195312 25.886719 34.691406 26.085938 C 35.421875 26.363281 36.964844 26.324219 37.578125 26.023438 C 38.210938 25.707031 38.765625 24.589844 38.765625 23.636719 C 38.765625 23.019531 38.863281 22.839844 39.417969 22.5 C 40.25 21.980469 40.507812 22.003906 40.664062 22.597656 Z M 40.664062 22.597656 "/>
<path style=" stroke:none;fill-rule:nonzero;fill:rgb(0%,0%,0%);fill-opacity:1;" d="M 3.046875 2.410156 C 1.207031 6.152344 0.949219 10.136719 2.273438 13.996094 L 2.75 15.429688 L 2.273438 16.746094 C 1.542969 18.777344 1.1875 20.886719 1.1875 23.136719 C 1.1875 26.203125 1.878906 28.394531 3.5 30.5625 C 4.234375 31.519531 5.894531 32.953125 6.070312 32.773438 C 6.113281 32.734375 5.835938 32.277344 5.4375 31.738281 C 3.855469 29.648438 3.164062 27.578125 3.164062 24.890625 C 3.164062 23.953125 3.304688 22.640625 3.460938 21.941406 C 3.816406 20.46875 4.527344 18.71875 4.765625 18.71875 C 4.867188 18.71875 5.359375 19.09375 5.855469 19.554688 C 6.527344 20.191406 6.726562 20.488281 6.625 20.789062 C 6.210938 22.242188 6.152344 23.4375 6.429688 24.769531 C 6.824219 26.679688 7.59375 28.175781 8.78125 29.390625 C 9.988281 30.585938 11.195312 31.023438 15.03125 31.660156 C 16.394531 31.878906 18.234375 32.257812 19.144531 32.457031 C 21.816406 33.09375 21.816406 33.09375 21.183594 31.203125 C 20.726562 29.90625 20.925781 29.570312 21.695312 30.285156 C 22.390625 30.941406 23.753906 32.753906 24.425781 33.910156 C 24.722656 34.425781 25 34.84375 25.019531 34.804688 C 25.039062 34.765625 24.980469 34.027344 24.902344 33.152344 C 24.328125 27.675781 21.835938 23.15625 17.601562 19.992188 C 17.007812 19.554688 15.84375 18.695312 15.03125 18.078125 C 9.097656 13.679688 4.886719 7.425781 4.015625 1.8125 L 3.855469 0.738281 Z M 3.777344 5.316406 C 5.992188 10.890625 10.085938 15.910156 15.722656 19.929688 C 18.058594 21.585938 19.5 22.9375 20.667969 24.589844 C 22.171875 26.703125 23.476562 29.609375 23.082031 30.007812 C 23.003906 30.066406 22.449219 29.648438 21.816406 29.070312 C 19.324219 26.761719 15.210938 23.992188 10.285156 21.285156 C 6.960938 19.453125 5.203125 17.820312 4.074219 15.53125 C 3.105469 13.558594 2.789062 12.246094 2.628906 9.835938 C 2.53125 8.0625 2.769531 5.515625 3.105469 4.917969 C 3.285156 4.621094 3.578125 4.796875 3.777344 5.316406 Z M 10.777344 22.699219 C 11.3125 23.039062 11.433594 23.238281 11.53125 24.09375 C 11.6875 25.386719 11.964844 25.863281 12.757812 26.203125 C 13.585938 26.542969 14.4375 26.5625 15.445312 26.242188 C 16.199219 26.023438 16.257812 26.042969 17.503906 26.902344 C 18.710938 27.71875 19.007812 28.113281 18.613281 28.355469 C 18.53125 28.414062 17.601562 28.574219 16.574219 28.691406 C 14.972656 28.890625 14.578125 28.871094 13.609375 28.59375 C 11.3125 27.9375 9.96875 26.261719 9.710938 23.792969 C 9.535156 22.101562 9.632812 21.980469 10.777344 22.699219 Z M 10.777344 22.699219 "/>
</g>
</svg>
